<svg xmlns:xlink="http://www.w3.org/1999/xlink" xmlns="http://www.w3.org/2000/svg" width="228" inkscape:export-ydpi="96" xmlns:dc="http://purl.org/dc/elements/1.1/" viewBox="0 0 228 228" xmlns:rdf="http://www.w3.org/1999/02/22-rdf-syntax-ns#" inkscape:export-xdpi="96" version="1.1" xmlns:sodipodi="http://sodipodi.sourceforge.net/DTD/sodipodi-0.dtd" height="228" xmlns:svg="http://www.w3.org/2000/svg" xmlns:cc="http://creativecommons.org/ns#" xmlns:inkscape="http://www.inkscape.org/namespaces/inkscape" xmlns:osb="http://www.openswatchbook.org/uri/2009/osb" style="fill:none;stroke:none;">
    <defs>
        <clipPath id="clip_PreCompLayer_ff946ce58aa943c4b615cc4ee00e0ff1" clipPathUnits="userSpaceOnUse">
            <rect width="189" y="0" x="0" height="125"/>
        </clipPath>
        <clipPath id="clip_PreCompLayer_f9da0bbd21fd445da965a5a41744d58b" clipPathUnits="userSpaceOnUse">
            <rect width="189" y="0" x="0" height="59"/>
        </clipPath>
        <clipPath id="clip_PreCompLayer_5bf6cef5fcad4ff69f886f4012bf6747" clipPathUnits="userSpaceOnUse">
            <rect width="196" y="0" x="0" height="109"/>
        </clipPath>
        <clipPath id="clip_PreCompLayer_c5c73a21d9c84201a8c3eda62634b619" clipPathUnits="userSpaceOnUse">
            <rect width="37" y="0" x="0" height="108"/>
        </clipPath>
        <clipPath id="clip_PreCompLayer_0e8ad66f5f9b4323b40f545914d5bcde" clipPathUnits="userSpaceOnUse">
            <rect width="37" y="0" x="0" height="108"/>
        </clipPath>
        <clipPath id="clip_PreCompLayer_ff49719fd365419aada5e074847ad1bb" clipPathUnits="userSpaceOnUse">
            <rect width="69" y="0" x="0" height="63"/>
        </clipPath>
    </defs>
    <sodipodi:namedview borderlayer="true" pagecolor="#ffffff" bordercolor="#666666" inkscape:pagecheckerboard="true" inkscape:document-units="px"/>
    <title>questAvailable</title>
    <g id="MainComposition_fc17fcd2aeaa46a2988150c3cb10256f" inkscape:label="questAvailable" inkscape:groupmode="layer">
        <g transform="translate(114 116.927)">
            <g transform="rotate(5.625)">
                <g transform="scale(1 1)">
                    <g transform="translate(0 0)">
                        <g id="Layer_f1d546557b9a43fdb001d5edf78376fc_Layer_94b8791180c34db6be64bc772b66e65e" inkscape:label="▽ bottomBox (Null 1)" inkscape:groupmode="layer">
                            <g id="Layer_f1d546557b9a43fdb001d5edf78376fc" transform="matrix(1, 0, 0, 1, 0, 0)" inkscape:label="▽ bottomBox" inkscape:groupmode="layer" opacity="1">
                                <g id="PreCompLayer_ff946ce58aa943c4b615cc4ee00e0ff1" transform="matrix(1, 0, 0, 1, -95, -24)" inkscape:label="▽ bottomBox" inkscape:groupmode="layer" opacity="1">
                                    <g id="Layer_abd53b73f22f4182876b36295499e8f2" transform="matrix(1, 0, 0, 1, 170.264, 61.891)" inkscape:label="Fill 1" inkscape:groupmode="layer" opacity="1">
                                        <g id="Fill_30ef5772300441b395c214355aed1951" fill-opacity="1" transform="matrix(1, 0, 0, 1, 0, 0)" fill="#ca2115" inkscape:label="Fill 1" opacity="1">
                                            <path sodipodi:nodetypes="cccccc" d="M 15.009,23.759 C 15.009,23.759 -18.601,61.889 -18.601,61.889 -18.601,61.889 -17.641,-21.061 -17.641,-21.061 -17.641,-21.061 18.599,-61.891 18.599,-61.891 18.599,-61.891 18.599,14.299 18.599,14.299 18.599,17.789 17.319,21.149 15.009,23.759" style=""/>
                                        </g>
                                    </g>
                                    <g id="Layer_3d085d4829e1479e8869f49d73f23419" transform="matrix(1, 0, 0, 1, 74.207, 82.869)" inkscape:label="Fill 3" inkscape:groupmode="layer" opacity="1">
                                        <g id="Fill_4374f5eef74b48f7b44262863640fdca" fill-opacity="1" transform="matrix(1, 0, 0, 1, 0, 0)" fill="#ca2115" inkscape:label="Fill 3" opacity="1">
                                            <path sodipodi:nodetypes="cccc" d="M -54.336,42.033 C -54.336,42.033 54.334,42.033 54.334,42.033 54.334,42.033 54.334,-42.037 54.334,-42.037 54.334,-42.037 -54.336,-42.037 -54.336,-42.037 -54.336,-42.037 -54.336,42.033 -54.336,42.033 Z" style=""/>
                                        </g>
                                    </g>
                                    <g id="Layer_f84eca5659b04696901d856d43bafb80" transform="matrix(1, 0, 0, 1, 9.935, 82.869)" inkscape:label="Fill 5" inkscape:groupmode="layer" opacity="1">
                                        <g id="Fill_2b3171cf4bea4a9dab26820313ee1a34" fill-opacity="1" transform="matrix(1, 0, 0, 1, 0, 0)" fill="#f1b44e" inkscape:label="Fill 5" opacity="1">
                                            <path sodipodi:nodetypes="ccccc" d="M -9.935,-42.037 C -9.935,-42.037 -9.935,35.543 -9.935,35.543 -9.935,39.133 -7.045,42.033 -3.475,42.033 -3.475,42.033 9.935,42.033 9.935,42.033 9.935,42.033 9.935,-42.037 9.935,-42.037 9.935,-42.037 -9.935,-42.037 -9.935,-42.037 Z" style=""/>
                                        </g>
                                    </g>
                                    <g id="Layer_13db55820d774e0da6baae7b57f757a7" transform="matrix(1, 0, 0, 1, 140.581, 82.869)" inkscape:label="Fill 6" inkscape:groupmode="layer" opacity="1">
                                        <g id="Fill_1b39b2f9e4f14d23bf34cdda77c9aa3a" fill-opacity="1" transform="matrix(1, 0, 0, 1, 0, 0)" fill="#f1b44e" inkscape:label="Fill 6" opacity="1">
                                            <path sodipodi:nodetypes="ccccc" d="M -12.038,-42.037 C -12.038,-42.037 -12.038,42.033 -12.038,42.033 -12.038,42.033 8.502,42.033 8.502,42.033 10.452,42.033 12.042,40.453 12.042,38.513 12.042,38.513 12.042,-42.037 12.042,-42.037 12.042,-42.037 -12.038,-42.037 -12.038,-42.037 Z" style=""/>
                                        </g>
                                    </g>
                                </g>
                            </g>
                        </g>
                    </g>
                </g>
                <animateTransform repeatCount="indefinite" dur="5.000000" keyTimes="0.000000; 0.080000; 0.156667; 0.210000; 0.263333; 0.316667; 0.383333; 0.463333; 0.540000; 0.593333; 0.646667; 0.700000; 0.763333; 0.843333; 0.973333; 0.996667; 1" begin="0.000000" calcMode="spline" type="rotate" attributeName="transform" values="7.5; 0; -7.5; 0; 7.5; 0; 7.5; 0; -7.5; 0; 0.5; 0; 7.5; 0; 0; 7.5; 7.5" keySplines="0.167000 0.167000 0.833000 0.833000; 0.167000 0.167000 0.833000 0.833000; 0.167000 0.167000 0.833000 0.833000; 0.167000 0.167000 0.833000 0.833000; 0.167000 0.167000 0.833000 0.833000; 0.167000 0.167000 0.833000 0.833000; 0.167000 0.167000 0.833000 0.833000; 0.167000 0.167000 0.833000 0.833000; 0.167000 0.167000 0.833000 0.833000; 0.167000 0.167000 0.833000 0.833000; 0.167000 0.167000 0.833000 0.833000; 0.167000 0.167000 0.833000 0.833000; 0.167000 0.167000 0.833000 0.833000; 0.167000 0.167000 0.833000 0.833000; 0.167000 0.167000 0.833000 0.833000; 0.167000 0.167000 0.833000 0.833000"/>
            </g>
            <animateTransform repeatCount="indefinite" dur="5.000000" keyTimes="0.000000; 0.098593; 0.193333; 0.347417; 0.490000; 0.657280; 0.753333; 0.906100; 0.996667; 1" begin="0.000000" calcMode="spline" type="translate" attributeName="transform" values="114 114; 114 92; 114 123; 114 92; 114 123; 114 92; 114 123; 114 92; 114 114; 114 114" keySplines="0.167000 0.167000 0.833000 0.833000; 0.167000 0.167000 0.833000 0.833000; 0.167000 0.167000 0.833000 0.833000; 0.167000 0.167000 0.833000 0.833000; 0.167000 0.167000 0.833000 0.833000; 0.167000 0.167000 0.833000 0.833000; 0.167000 0.167000 0.833000 0.833000; 0.167000 0.167000 0.833000 0.833000; 0.000000 0.000000 0.000000 0.000000"/>
        </g>
        <g transform="translate(114 116.927)">
            <g transform="rotate(5.625)">
                <g transform="scale(1 1)">
                    <g transform="translate(0 0)">
                        <g id="Layer_ca53669c91254cdfa29a0ef41d8b9507_Layer_94b8791180c34db6be64bc772b66e65e" inkscape:label="▽ shadow (Null 1)" inkscape:groupmode="layer">
                            <g id="Layer_ca53669c91254cdfa29a0ef41d8b9507" transform="matrix(1, 0, 0, 1, 0, 0)" inkscape:label="▽ shadow" inkscape:groupmode="layer" opacity="1">
                                <g transform="translate(-0.5 12.6262)">
                                    <g transform="rotate(0)">
                                        <g transform="scale(1 1)">
                                            <g transform="translate(-94.5 -29.5)">
                                                <g id="PreCompLayer_f9da0bbd21fd445da965a5a41744d58b" inkscape:label="▽ shadow" inkscape:groupmode="layer" opacity="1">
                                                    <g id="Layer_5475fa397d564ca2b7a4362ee13cd11c" transform="matrix(1, 0, 0, 1, 76.31, 49.793)" inkscape:label="Fill 7" inkscape:groupmode="layer" opacity="0.3499999940395355">
                                                        <g id="Fill_51121b60232b48fca3493264464f4e9e" fill-opacity="1" transform="matrix(1, 0, 0, 1, 0, 0)" fill="#701604" inkscape:label="Fill 7" opacity="1">
                                                            <path sodipodi:nodetypes="cccc" d="M 76.31,-8.916 C 76.31,-8.916 -76.31,-8.916 -76.31,-8.916 -76.31,-8.916 -76.31,8.914 -76.31,8.914 -76.31,8.914 76.31,8.914 76.31,8.914" style=""/>
                                                        </g>
                                                    </g>
                                                    <g id="Layer_0336225c24b340ccaddbab601c2cfe5a" transform="matrix(1, 0, 0, 1, 170.743, 29.355)" inkscape:label="Fill 8" inkscape:groupmode="layer" opacity="0.3499999940395355">
                                                        <g id="Fill_2bfd612d6c6f4f99a7e9e749aac40b73" fill-opacity="1" transform="matrix(1, 0, 0, 1, 0, 0)" fill="#701604" inkscape:label="Fill 8" opacity="1">
                                                            <path sodipodi:nodetypes="cccc" d="M -18.123,29.355 C -18.123,29.355 18.127,-9.605 18.127,-9.605 18.127,-9.605 18.127,-29.355 18.127,-29.355 18.127,-29.355 -18.123,11.525 -18.123,11.525" style=""/>
                                                        </g>
                                                    </g>
                                                </g>
                                            </g>
                                        </g>
                                    </g>
                                    <animateTransform repeatCount="indefinite" dur="5.000000" keyTimes="0.000000; 0.083333; 0.106667; 0.206667; 0.253333; 0.300000; 0.356667; 0.450000; 0.543333; 0.693333; 0.733333; 0.760000; 0.843333; 0.873333; 0.913333; 0.946667; 1" begin="0.000000" calcMode="spline" type="translate" attributeName="transform" values="-0.5 5.5; -0.5 14.5; -0.5 5.5; -0.5 11.5; -0.5 6.5; -0.5 5.306; -0.5 10.5; -0.5 5.5; -0.5 19.5; -0.5 10.5; -0.5 4.325; -0.5 14.985; -0.5 6.5; -0.5 16.5; -0.5 9.5; -0.5 3.5; -0.5 3.5" keySplines="0.167000 0.167000 0.833000 0.833000; 0.167000 0.167000 0.833000 0.833000; 0.167000 0.167000 0.833000 0.833000; 0.167000 0.167000 0.833000 0.833000; 0.167000 0.167000 0.833000 0.833000; 0.167000 0.167000 0.833000 0.833000; 0.167000 0.167000 0.833000 0.833000; 0.167000 0.167000 0.833000 0.833000; 0.167000 0.167000 0.833000 0.833000; 0.167000 0.167000 0.833000 0.833000; 0.167000 0.167000 0.833000 0.833000; 0.167000 0.167000 0.833000 0.833000; 0.167000 0.167000 0.833000 0.833000; 0.167000 0.167000 0.833000 0.833000; 0.167000 0.167000 0.833000 0.833000; 0.000000 0.000000 0.000000 0.000000"/>
                                </g>
                            </g>
                        </g>
                    </g>
                </g>
                <animateTransform repeatCount="indefinite" dur="5.000000" keyTimes="0.000000; 0.080000; 0.156667; 0.210000; 0.263333; 0.316667; 0.383333; 0.463333; 0.540000; 0.593333; 0.646667; 0.700000; 0.763333; 0.843333; 0.973333; 0.996667; 1" begin="0.000000" calcMode="spline" type="rotate" attributeName="transform" values="7.5; 0; -7.5; 0; 7.5; 0; 7.5; 0; -7.5; 0; 0.5; 0; 7.5; 0; 0; 7.5; 7.5" keySplines="0.167000 0.167000 0.833000 0.833000; 0.167000 0.167000 0.833000 0.833000; 0.167000 0.167000 0.833000 0.833000; 0.167000 0.167000 0.833000 0.833000; 0.167000 0.167000 0.833000 0.833000; 0.167000 0.167000 0.833000 0.833000; 0.167000 0.167000 0.833000 0.833000; 0.167000 0.167000 0.833000 0.833000; 0.167000 0.167000 0.833000 0.833000; 0.167000 0.167000 0.833000 0.833000; 0.167000 0.167000 0.833000 0.833000; 0.167000 0.167000 0.833000 0.833000; 0.167000 0.167000 0.833000 0.833000; 0.167000 0.167000 0.833000 0.833000; 0.167000 0.167000 0.833000 0.833000; 0.167000 0.167000 0.833000 0.833000"/>
            </g>
            <animateTransform repeatCount="indefinite" dur="5.000000" keyTimes="0.000000; 0.098593; 0.193333; 0.347417; 0.490000; 0.657280; 0.753333; 0.906100; 0.996667; 1" begin="0.000000" calcMode="spline" type="translate" attributeName="transform" values="114 114; 114 92; 114 123; 114 92; 114 123; 114 92; 114 123; 114 92; 114 114; 114 114" keySplines="0.167000 0.167000 0.833000 0.833000; 0.167000 0.167000 0.833000 0.833000; 0.167000 0.167000 0.833000 0.833000; 0.167000 0.167000 0.833000 0.833000; 0.167000 0.167000 0.833000 0.833000; 0.167000 0.167000 0.833000 0.833000; 0.167000 0.167000 0.833000 0.833000; 0.167000 0.167000 0.833000 0.833000; 0.000000 0.000000 0.000000 0.000000"/>
        </g>
        <g transform="translate(114 116.927)">
            <g transform="rotate(5.625)">
                <g transform="scale(1 1)">
                    <g transform="translate(0 0)">
                        <g id="Layer_39ec11e7444743a0bbb39b0df372428b_Layer_94b8791180c34db6be64bc772b66e65e" inkscape:label="▽ topBox (Null 1)" inkscape:groupmode="layer">
                            <g id="Layer_39ec11e7444743a0bbb39b0df372428b" transform="matrix(1, 0, 0, 1, 0, 0)" inkscape:label="▽ topBox" inkscape:groupmode="layer" opacity="1">
                                <g transform="translate(0.473939 -28.0152)">
                                    <g transform="rotate(0)">
                                        <g transform="scale(1 1)">
                                            <g transform="translate(-98 -54.5)">
                                                <g id="PreCompLayer_5bf6cef5fcad4ff69f886f4012bf6747" inkscape:label="▽ topBox" inkscape:groupmode="layer" opacity="1">
                                                    <g id="Layer_1ed702f0b5aa4da6ba9d1639e617a818" transform="matrix(1, 0, 0, 1, 0, 0)" inkscape:label="▽ Group" inkscape:groupmode="layer" opacity="1">
                                                        <g id="PreCompLayer_c5c73a21d9c84201a8c3eda62634b619" transform="matrix(1, 0, 0, 1, 27.508, 0.006)" inkscape:label="▽ Group" inkscape:groupmode="layer" opacity="1">
                                                            <g id="Layer_fca4c800804b458d8a1462c014f35f67" transform="matrix(1, 0, 0, 1, 18.283, 53.966)" inkscape:label="Combined Shape" inkscape:groupmode="layer" opacity="1">
                                                                <g id="Group_15641624d69b4f70a4a8d56c77b3a33f" transform="matrix(1, 0, 0, 1, 0, 0)" inkscape:label="Combined Shape" opacity="1">
                                                                    <g id="Fill_b50ff2cf154f4b4dbe0dc44a07d81af4" fill-opacity="1" fill="#f1b44e" inkscape:label="Fill 1" style="">
                                                                        <path sodipodi:nodetypes="ccccccc" d="M 5.279,-53.896 C 3.609,-53.626 1.839,-52.516 -0.001,-50.456 -0.001,-50.456 -0.461,-49.846 -0.461,-49.846 -10.341,-38.006 -18.271,-3.436 -18.281,28.144 -18.281,28.144 -0.001,7.654 -0.001,7.654 -0.001,7.654 18.279,-12.836 18.279,-12.836 18.279,-39.096 12.799,-55.126 5.279,-53.896" style=""/>
                                                                        <path sodipodi:nodetypes="ccccc" d="M -18.283,53.968 C -18.283,53.968 16.587,14.888 16.587,14.888 17.677,13.658 18.287,12.078 18.287,10.428 18.287,10.428 18.287,-12.912 18.287,-12.912 18.287,-12.912 -18.283,28.068 -18.283,28.068 -18.283,28.068 -18.283,53.968 -18.283,53.968 Z" style=""/>
                                                                    </g>
                                                                </g>
                                                            </g>
                                                            <g id="Layer_7528ff5e7be44ea5b61c9e9b37a68bc3" transform="matrix(1, 0, 0, 1, 18.283, 53.966)" inkscape:label="Combined Shape" inkscape:groupmode="layer" opacity="0.3499999940395355">
                                                                <g id="Group_b14cb8ccce724a439264ed966d745b51" transform="matrix(1, 0, 0, 1, 0, 0)" inkscape:label="Combined Shape" opacity="1">
                                                                    <g id="Fill_e91d4b86b303483d8e9d67fad890f877" fill-opacity="1" fill="#701604" inkscape:label="Fill 1" style="">
                                                                        <path sodipodi:nodetypes="ccccccc" d="M 5.279,-53.896 C 3.609,-53.626 1.839,-52.516 -0.001,-50.456 -0.001,-50.456 -0.461,-49.846 -0.461,-49.846 -10.341,-38.006 -18.271,-3.436 -18.281,28.144 -18.281,28.144 -0.001,7.654 -0.001,7.654 -0.001,7.654 18.279,-12.836 18.279,-12.836 18.279,-39.096 12.799,-55.126 5.279,-53.896" style=""/>
                                                                        <path sodipodi:nodetypes="ccccc" d="M -18.283,53.968 C -18.283,53.968 16.587,14.888 16.587,14.888 17.677,13.658 18.287,12.078 18.287,10.428 18.287,10.428 18.287,-12.912 18.287,-12.912 18.287,-12.912 -18.283,28.068 -18.283,28.068 -18.283,28.068 -18.283,53.968 -18.283,53.968 Z" style=""/>
                                                                    </g>
                                                                </g>
                                                            </g>
                                                        </g>
                                                    </g>
                                                    <g id="Layer_12fe0b0b8f464a5395e533b2ab18855e" transform="matrix(1, 0, 0, 1, 94.561, 44.688)" inkscape:label="Fill 9" inkscape:groupmode="layer" opacity="1">
                                                        <g id="Fill_73ebaf1a81a84a45bd32005aab3ef4a0" fill-opacity="1" transform="matrix(1, 0, 0, 1, 0, 0)" fill="#ca2115" inkscape:label="Fill 9" opacity="1">
                                                            <path sodipodi:nodetypes="cccccc" d="M 38.705,39.529 C 38.705,8.639 46.695,-25.241 56.545,-36.141 58.415,-38.201 61.895,-39.491 61.895,-39.491 61.895,-39.491 -38.085,-39.531 -38.085,-39.531 -39.945,-39.541 -41.965,-38.451 -44.055,-36.141 -53.905,-25.241 -61.895,8.629 -61.895,39.529 -61.895,39.529 38.705,39.529 38.705,39.529 Z" style=""/>
                                                        </g>
                                                    </g>
                                                    <g id="Layer_de91f71321a34fe3b51ea9a081a1a5c2" transform="matrix(1, 0, 0, 1, 97.507, 53.969)" inkscape:label="Fill 10" inkscape:groupmode="layer" opacity="1">
                                                        <g id="Fill_3c86c54180114a9b9973d2a28ac2b174" fill-opacity="1" transform="matrix(1, 0, 0, 1, 0, 0)" fill="#f1b44e" inkscape:label="Fill 10" opacity="1">
                                                            <path sodipodi:nodetypes="cccccccccccccccccccc" d="M 60.943,28.071 C 60.953,-3.999 69.133,-39.139 79.223,-50.439 81.373,-52.849 83.433,-53.989 85.343,-53.969 85.343,-53.969 58.853,-53.939 58.853,-53.939 58.853,-53.939 57.033,-53.929 57.033,-53.929 57.033,-53.929 53.453,-52.589 51.543,-50.449 41.463,-39.139 33.283,-3.999 33.263,28.071 33.263,28.071 -69.827,28.071 -69.827,28.071 -69.817,-3.999 -61.637,-39.139 -51.547,-50.439 -49.407,-52.849 -47.337,-53.989 -45.427,-53.969 -45.427,-53.969 -71.917,-53.939 -71.917,-53.939 -71.917,-53.939 -73.747,-53.929 -73.747,-53.929 -73.747,-53.929 -77.317,-52.589 -79.227,-50.449 -89.317,-39.139 -97.497,-3.999 -97.507,28.071 -97.507,28.071 -97.507,49.441 -97.507,49.441 -97.507,51.941 -95.477,53.971 -92.977,53.971 -92.977,53.971 60.943,53.971 60.943,53.971 60.943,53.971 95.953,14.721 95.953,14.721 96.953,13.601 97.503,12.161 97.503,10.661 97.503,10.661 97.503,-12.909 97.503,-12.909 97.503,-12.909 60.943,28.071 60.943,28.071 Z" style=""/>
                                                        </g>
                                                    </g>
                                                    <g id="Layer_97ab6b92c5e5405aa1ee239b8909c688" transform="matrix(1, 0, 0, 1, 176.73, 41.061)" inkscape:label="Fill 12" inkscape:groupmode="layer" opacity="1">
                                                        <g id="Fill_baa8c8d2adc94b23b3f882b8c2953e0f" fill-opacity="1" transform="matrix(1, 0, 0, 1, 0, 0)" fill="#ca2115" inkscape:label="Fill 12" opacity="1">
                                                            <path sodipodi:nodetypes="ccccccc" d="M 5.279,-40.984 C 3.609,-40.714 1.839,-39.604 -0.001,-37.544 -0.001,-37.544 -0.461,-36.934 -0.461,-36.934 -10.341,-25.094 -18.271,9.476 -18.281,41.056 -18.281,41.056 -0.001,20.566 -0.001,20.566 -0.001,20.566 18.279,0.076 18.279,0.076 18.279,-26.184 12.799,-42.214 5.279,-40.984" style=""/>
                                                        </g>
                                                    </g>
                                                    <g id="Layer_cef86792b0a94e51b4e57c29edfb35be" transform="matrix(1, 0, 0, 1, 0, 0)" inkscape:label="▽ Group Copy" inkscape:groupmode="layer" opacity="1">
                                                        <g id="PreCompLayer_0e8ad66f5f9b4323b40f545914d5bcde" transform="matrix(1, 0, 0, 1, 158.175, 0.006)" inkscape:label="▽ Group Copy" inkscape:groupmode="layer" opacity="1">
                                                            <g id="Layer_34877680025b4b5ea4a1bd42fbef32d0" transform="matrix(1, 0, 0, 1, 18.283, 53.966)" inkscape:label="Combined Shape" inkscape:groupmode="layer" opacity="1">
                                                                <g id="Group_d2af6c72d306454dbf02746b1fd30bf2" transform="matrix(1, 0, 0, 1, 0, 0)" inkscape:label="Combined Shape" opacity="1">
                                                                    <g id="Fill_147aa5894a7545d6adbf4ae748496541" fill-opacity="1" fill="#f1b44e" inkscape:label="Fill 1" style="">
                                                                        <path sodipodi:nodetypes="ccccccc" d="M 5.279,-53.896 C 3.609,-53.626 1.839,-52.516 -0.001,-50.456 -0.001,-50.456 -0.461,-49.846 -0.461,-49.846 -10.341,-38.006 -18.271,-3.436 -18.281,28.144 -18.281,28.144 -0.001,7.654 -0.001,7.654 -0.001,7.654 18.279,-12.836 18.279,-12.836 18.279,-39.096 12.799,-55.126 5.279,-53.896" style=""/>
                                                                        <path sodipodi:nodetypes="ccccc" d="M -18.283,53.968 C -18.283,53.968 16.587,14.888 16.587,14.888 17.677,13.658 18.287,12.078 18.287,10.428 18.287,10.428 18.287,-12.912 18.287,-12.912 18.287,-12.912 -18.283,28.068 -18.283,28.068 -18.283,28.068 -18.283,53.968 -18.283,53.968 Z" style=""/>
                                                                    </g>
                                                                </g>
                                                            </g>
                                                            <g id="Layer_513b6494162b4d0b91146fead21c3dd0" transform="matrix(1, 0, 0, 1, 18.283, 53.966)" inkscape:label="Combined Shape" inkscape:groupmode="layer" opacity="0.3499999940395355">
                                                                <g id="Group_a2ac7b97958d4584bff43d55bfdc97f1" transform="matrix(1, 0, 0, 1, 0, 0)" inkscape:label="Combined Shape" opacity="1">
                                                                    <g id="Fill_298659044a7147a5b175653f1c3e3f31" fill-opacity="1" fill="#701604" inkscape:label="Fill 1" style="">
                                                                        <path sodipodi:nodetypes="ccccccc" d="M 5.279,-53.896 C 3.609,-53.626 1.839,-52.516 -0.001,-50.456 -0.001,-50.456 -0.461,-49.846 -0.461,-49.846 -10.341,-38.006 -18.271,-3.436 -18.281,28.144 -18.281,28.144 -0.001,7.654 -0.001,7.654 -0.001,7.654 18.279,-12.836 18.279,-12.836 18.279,-39.096 12.799,-55.126 5.279,-53.896" style=""/>
                                                                        <path sodipodi:nodetypes="ccccc" d="M -18.283,53.968 C -18.283,53.968 16.587,14.888 16.587,14.888 17.677,13.658 18.287,12.078 18.287,10.428 18.287,10.428 18.287,-12.912 18.287,-12.912 18.287,-12.912 -18.283,28.068 -18.283,28.068 -18.283,28.068 -18.283,53.968 -18.283,53.968 Z" style=""/>
                                                                    </g>
                                                                </g>
                                                            </g>
                                                        </g>
                                                    </g>
                                                    <g id="Layer_898635278af24c0d96fe8eeb567011ca" transform="matrix(1, 0, 0, 1, 177.052, 44.247)" inkscape:label="Fill 14" inkscape:groupmode="layer" opacity="0.3499999940395355">
                                                        <g id="Fill_e87af2ba651a46b4b7c772fc1bd4c992" fill-opacity="1" transform="matrix(1, 0, 0, 1, 0, 0)" fill="#701604" inkscape:label="Fill 14" opacity="1">
                                                            <path sodipodi:nodetypes="ccccc" d="M 10.691,2.409 C 10.691,-16.951 7.831,-28.771 3.911,-27.861 3.031,-27.661 2.111,-26.841 1.151,-25.321 1.151,-25.321 0.911,-24.871 0.911,-24.871 -4.239,-16.141 -10.679,4.629 -10.689,27.909" style=""/>
                                                        </g>
                                                    </g>
                                                    <g id="Layer_54853b6e2a4e49ac898b4be79489f466" transform="matrix(1, 0, 0, 1, 175.532, 45.978)" inkscape:label="Fill 15" inkscape:groupmode="layer" opacity="1">
                                                        <g id="Fill_73b030ac82e14260a2430e558a0ff985" fill-opacity="1" transform="matrix(1, 0, 0, 1, 0, 0)" fill="#ca2115" inkscape:label="Fill 15" opacity="1">
                                                            <path sodipodi:nodetypes="ccccc" d="M 9.172,4.249 C 9.172,-13.431 5.532,-26.971 2.852,-26.141 2.252,-25.961 1.622,-25.211 0.972,-23.821 0.972,-23.821 0.802,-23.411 0.802,-23.411 -2.718,-15.441 -9.158,4.919 -9.168,26.179 -9.168,26.179 9.172,4.249 9.172,4.249 Z" style=""/>
                                                        </g>
                                                    </g>
                                                    <g id="Layer_e2c5f0b8eeb4457392b64371914f9092" transform="matrix(1, 0, 0, 1, 175.532, 45.978)" inkscape:label="Fill 15" inkscape:groupmode="layer" opacity="0.3499999940395355">
                                                        <g id="Fill_5ccd0942f4864077b4e3a5b43840556d" fill-opacity="1" transform="matrix(1, 0, 0, 1, 0, 0)" fill="#701604" inkscape:label="Fill 15" opacity="1">
                                                            <path sodipodi:nodetypes="ccccc" d="M 9.172,4.249 C 9.172,-13.431 5.532,-26.971 2.852,-26.141 2.252,-25.961 1.622,-25.211 0.972,-23.821 0.972,-23.821 0.802,-23.411 0.802,-23.411 -2.718,-15.441 -9.158,4.919 -9.168,26.179 -9.168,26.179 9.172,4.249 9.172,4.249 Z" style=""/>
                                                        </g>
                                                    </g>
                                                </g>
                                            </g>
                                        </g>
                                    </g>
                                    <animateTransform repeatCount="indefinite" dur="5.000000" keyTimes="0.000000; 0.080000; 0.100000; 0.210000; 0.303333; 0.346667; 0.440000; 0.443333; 0.536667; 0.643333; 0.736667; 0.740000; 0.850000; 0.860000; 0.943333; 0.950000; 0.996667; 1" begin="0.000000" calcMode="spline" type="translate" attributeName="transform" values="-2 -36.5; -2 -25.5; -2 -36.5; 4 -30.5; -2 -36.5; -0.137 -29.5; 3.854 -36.254; 4 -36.5; -2 -21.5; 4 -22.5; -2 -36.5; -1.818 -22.5; 4 -36.5; 3.349 -22.5; -2 -36.5; -2 -34.5; -2 -36.5; -2 -36.5" keySplines="0.167000 0.167000 0.833000 0.833000; 0.167000 0.167000 0.833000 0.833000; 0.167000 0.167000 0.833000 0.833000; 0.167000 0.167000 0.833000 0.833000; 0.167000 0.167000 0.833000 0.833000; 0.167000 0.167000 0.833000 0.833000; 0.167000 0.167000 0.833000 0.833000; 0.167000 0.167000 0.833000 0.833000; 0.167000 0.167000 0.833000 0.833000; 0.167000 0.167000 0.833000 0.833000; 0.167000 0.167000 0.833000 0.833000; 0.167000 0.167000 0.833000 0.833000; 0.167000 0.167000 0.833000 0.833000; 0.167000 0.167000 0.833000 0.833000; 0.167000 0.167000 0.833000 0.833000; 0.167000 0.167000 0.833000 0.833000; 0.000000 0.000000 0.000000 0.000000"/>
                                </g>
                            </g>
                        </g>
                    </g>
                </g>
                <animateTransform repeatCount="indefinite" dur="5.000000" keyTimes="0.000000; 0.080000; 0.156667; 0.210000; 0.263333; 0.316667; 0.383333; 0.463333; 0.540000; 0.593333; 0.646667; 0.700000; 0.763333; 0.843333; 0.973333; 0.996667; 1" begin="0.000000" calcMode="spline" type="rotate" attributeName="transform" values="7.5; 0; -7.5; 0; 7.5; 0; 7.5; 0; -7.5; 0; 0.5; 0; 7.5; 0; 0; 7.5; 7.5" keySplines="0.167000 0.167000 0.833000 0.833000; 0.167000 0.167000 0.833000 0.833000; 0.167000 0.167000 0.833000 0.833000; 0.167000 0.167000 0.833000 0.833000; 0.167000 0.167000 0.833000 0.833000; 0.167000 0.167000 0.833000 0.833000; 0.167000 0.167000 0.833000 0.833000; 0.167000 0.167000 0.833000 0.833000; 0.167000 0.167000 0.833000 0.833000; 0.167000 0.167000 0.833000 0.833000; 0.167000 0.167000 0.833000 0.833000; 0.167000 0.167000 0.833000 0.833000; 0.167000 0.167000 0.833000 0.833000; 0.167000 0.167000 0.833000 0.833000; 0.167000 0.167000 0.833000 0.833000; 0.167000 0.167000 0.833000 0.833000"/>
            </g>
            <animateTransform repeatCount="indefinite" dur="5.000000" keyTimes="0.000000; 0.098593; 0.193333; 0.347417; 0.490000; 0.657280; 0.753333; 0.906100; 0.996667; 1" begin="0.000000" calcMode="spline" type="translate" attributeName="transform" values="114 114; 114 92; 114 123; 114 92; 114 123; 114 92; 114 123; 114 92; 114 114; 114 114" keySplines="0.167000 0.167000 0.833000 0.833000; 0.167000 0.167000 0.833000 0.833000; 0.167000 0.167000 0.833000 0.833000; 0.167000 0.167000 0.833000 0.833000; 0.167000 0.167000 0.833000 0.833000; 0.167000 0.167000 0.833000 0.833000; 0.167000 0.167000 0.833000 0.833000; 0.167000 0.167000 0.833000 0.833000; 0.000000 0.000000 0.000000 0.000000"/>
        </g>
        <g transform="translate(114 116.927)">
            <g transform="rotate(5.625)">
                <g transform="scale(1 1)">
                    <g transform="translate(0 0)">
                        <g id="Layer_24395e9764d24aa2b6508c471bbe8b67_Layer_94b8791180c34db6be64bc772b66e65e" inkscape:label="▽ lock (Null 1)" inkscape:groupmode="layer">
                            <g id="Layer_24395e9764d24aa2b6508c471bbe8b67" transform="matrix(1, 0, 0, 1, 0, 0)" inkscape:label="▽ lock" inkscape:groupmode="layer" opacity="1">
                                <g transform="translate(-24.218 17.7093)">
                                    <g transform="rotate(3.18182)">
                                        <g transform="scale(1 1)">
                                            <g transform="translate(-34.5 -31.5)">
                                                <g id="PreCompLayer_ff49719fd365419aada5e074847ad1bb" inkscape:label="▽ lock" inkscape:groupmode="layer" opacity="1">
                                                    <g id="Layer_7dfe656747704bb3a0b881e20aa9ba1d" transform="matrix(1, 0, 0, 1, 36.052, 31.172)" inkscape:label="Fill 17" inkscape:groupmode="layer" opacity="1">
                                                        <g id="Fill_7b5b6e1d14cb41fbad5c803f5fa58d9f" fill-opacity="1" transform="matrix(1, 0, 0, 1, 0, 0)" fill="#f1b44e" inkscape:label="Fill 17" opacity="1">
                                                            <path sodipodi:nodetypes="ccccccc" d="M -32.623,-25.272 C -32.623,-25.272 -17.893,-31.172 -17.893,-31.172 -17.893,-31.172 30.537,-31.172 30.537,-31.172 31.687,-31.172 32.627,-30.242 32.627,-29.092 32.627,-29.092 32.627,-0.282 32.627,-0.282 32.627,13.648 18.907,30.858 3.337,30.858 3.337,30.858 -9.673,31.168 -9.673,31.168" style=""/>
                                                        </g>
                                                    </g>
                                                    <g id="Layer_9aee1497a30e4420a97fabb55e88fb33" transform="matrix(1, 0, 0, 1, 35.694, 31.172)" inkscape:label="Fill 18" inkscape:groupmode="layer" opacity="0.3499999940395355">
                                                        <g id="Fill_15afdba192754c1ca37ff6b47ebe0ade" fill-opacity="1" transform="matrix(1, 0, 0, 1, 0, 0)" fill="#701604" inkscape:label="Fill 18" opacity="1">
                                                            <path sodipodi:nodetypes="cccccccc" d="M -32.982,-25.272 C -32.982,-25.272 -21.292,-29.952 -21.292,-29.952 -19.282,-30.762 -17.142,-31.172 -14.982,-31.172 -14.982,-31.172 30.828,-31.172 30.828,-31.172 32.018,-31.172 32.978,-30.212 32.978,-29.022 32.978,-29.022 32.978,-0.282 32.978,-0.282 32.978,13.648 19.258,30.858 3.688,30.858 3.688,30.858 -9.312,31.168 -9.312,31.168" style=""/>
                                                        </g>
                                                    </g>
                                                    <g id="Layer_4dc634b5a61740828f8c0af0383fa239" transform="matrix(1, 0, 0, 1, 47.529, 31.819)" inkscape:label="Fill 19" inkscape:groupmode="layer" opacity="0.3499999940395355">
                                                        <g id="Fill_a2ae2508746e47219b6f759f98f99396" fill-opacity="1" transform="matrix(1, 0, 0, 1, 0, 0)" fill="#701604" inkscape:label="Fill 19" opacity="1">
                                                            <path sodipodi:nodetypes="cccccc" d="M 14.604,-26.026 C 14.604,-26.026 20.094,-30.386 20.094,-30.386 20.524,-30.716 21.144,-30.416 21.144,-29.886 21.144,-29.886 21.144,-0.936 21.144,-0.936 21.144,12.994 7.424,30.214 -8.146,30.214 -8.146,30.214 -21.146,30.524 -21.146,30.524" style=""/>
                                                        </g>
                                                    </g>
                                                    <g id="Layer_f2fe9e1bdd114e05beca53b6bd87e175" transform="matrix(1, 0, 0, 1, 31.065, 34.07)" inkscape:label="Fill 20" inkscape:groupmode="layer" opacity="1">
                                                        <g id="Fill_baa3037b94e74ef3aa675f58bf1f420b" fill-opacity="1" transform="matrix(1, 0, 0, 1, 0, 0)" fill="#f1b44e" inkscape:label="Fill 20" opacity="1">
                                                            <path sodipodi:nodetypes="cccccccc" d="M 31.065,1.224 C 31.065,16.164 18.915,28.274 3.935,28.274 3.935,28.274 -3.935,28.274 -3.935,28.274 -18.915,28.274 -31.065,16.164 -31.065,1.224 -31.065,1.224 -31.065,-23.866 -31.065,-23.866 -31.065,-26.296 -29.085,-28.276 -26.635,-28.276 -26.635,-28.276 31.065,-28.276 31.065,-28.276 31.065,-28.276 31.065,1.224 31.065,1.224" style=""/>
                                                        </g>
                                                    </g>
                                                    <g id="Layer_cc81efef914f48ba9033bde0934e2fa3" transform="matrix(1, 0, 0, 1, 31.065, 35.038)" inkscape:label="Fill 21" inkscape:groupmode="layer" opacity="1">
                                                        <g id="Fill_fbcc36e9a15c4f0ebebe31ab6025fdd8" fill-opacity="1" transform="matrix(1, 0, 0, 1, 0, 0)" fill="#744318" inkscape:label="Fill 21" opacity="1">
                                                            <path sodipodi:nodetypes="ccccccccc" d="M 1.354,14.972 C 1.354,14.972 -1.356,14.972 -1.356,14.972 -5.446,14.972 -8.756,11.662 -8.756,7.582 -8.756,7.582 -8.756,-7.588 -8.756,-7.588 -8.756,-11.668 -5.446,-14.968 -1.356,-14.968 -1.356,-14.968 1.354,-14.968 1.354,-14.968 5.444,-14.968 8.754,-11.668 8.754,-7.588 8.754,-7.588 8.754,7.582 8.754,7.582 8.754,11.662 5.444,14.972 1.354,14.972" style=""/>
                                                        </g>
                                                    </g>
                                                    <g id="Layer_df7f8f0a349842b2a3a12615f8ec9ab4" transform="matrix(1, 0, 0, 1, 30.623, 34.935)" inkscape:label="Fill 22" inkscape:groupmode="layer" opacity="0.3499999940395355">
                                                        <g id="Fill_4884aeb7a2dd4ea1aa3b3b8ba87e5e5e" fill-opacity="1" transform="matrix(1, 0, 0, 1, 0, 0)" fill="#701604" inkscape:label="Fill 22" opacity="1">
                                                            <path sodipodi:nodetypes="ccccccccccc" d="M -3.984,10.825 C -3.984,10.825 -3.984,-2.585 -3.984,-2.585 -3.984,-7.155 -1.004,-10.855 2.666,-10.855 2.666,-10.855 6.876,-10.855 6.876,-10.855 7.366,-10.855 7.846,-10.775 8.316,-10.645 7.166,-13.155 5.026,-14.865 2.546,-14.865 2.546,-14.865 -1.664,-14.865 -1.664,-14.865 -5.334,-14.865 -8.314,-11.165 -8.314,-6.605 -8.314,-6.605 -8.314,6.805 -8.314,6.805 -8.314,10.755 -6.084,14.045 -3.094,14.865 -3.644,13.665 -3.984,12.295 -3.984,10.825" style=""/>
                                                        </g>
                                                    </g>
                                                </g>
                                            </g>
                                        </g>
                                        <animateTransform repeatCount="indefinite" dur="5.000000" keyTimes="0.000000; 0.050000; 0.160000; 0.300000; 0.410000; 0.530000; 0.640000; 0.740000; 0.850000; 0.996667; 1" begin="0.000000" calcMode="spline" type="rotate" attributeName="transform" values="0; 15; -15; 15; -15; 15; -15; 15; -15; 0; 0" keySplines="0.167000 0.167000 0.833000 0.833000; 0.167000 0.167000 0.833000 0.833000; 0.167000 0.167000 0.833000 0.833000; 0.167000 0.167000 0.833000 0.833000; 0.167000 0.167000 0.833000 0.833000; 0.167000 0.167000 0.833000 0.833000; 0.167000 0.167000 0.833000 0.833000; 0.167000 0.167000 0.833000 0.833000; 0.167000 0.167000 0.833000 0.833000; 0.000000 0.000000 0.000000 0.000000"/>
                                    </g>
                                    <animateTransform repeatCount="indefinite" dur="5.000000" keyTimes="0.000000; 0.026667; 0.080000; 0.130000; 0.183333; 0.233333; 0.286667; 0.370000; 0.423333; 0.486667; 0.540000; 0.586667; 0.640000; 0.716667; 0.770000; 0.846667; 0.900000; 0.996667; 1" begin="0.000000" calcMode="spline" type="translate" attributeName="transform" values="-24.218 24.231; -24.218 34.231; -24.218 14.231; -24.218 34.231; -24.218 14.231; -24.218 34.231; -24.218 14.231; -24.218 34.231; -24.218 14.231; -24.218 34.231; -24.218 14.231; -24.218 34.231; -24.218 14.231; -24.218 34.231; -24.218 14.231; -24.218 34.231; -24.218 14.231; -24.218 24.231; -24.218 24.231" keySplines="0.167000 0.167000 0.833000 0.833000; 0.167000 0.167000 0.833000 0.833000; 0.167000 0.167000 0.833000 0.833000; 0.167000 0.167000 0.833000 0.833000; 0.167000 0.167000 0.833000 0.833000; 0.167000 0.167000 0.833000 0.833000; 0.167000 0.167000 0.833000 0.833000; 0.167000 0.167000 0.833000 0.833000; 0.167000 0.167000 0.833000 0.833000; 0.167000 0.167000 0.833000 0.833000; 0.167000 0.167000 0.833000 0.833000; 0.167000 0.167000 0.833000 0.833000; 0.167000 0.167000 0.833000 0.833000; 0.167000 0.167000 0.833000 0.833000; 0.167000 0.167000 0.833000 0.833000; 0.167000 0.167000 0.833000 0.833000; 0.167000 0.167000 0.833000 0.833000; 0.000000 0.000000 0.000000 0.000000"/>
                                </g>
                            </g>
                        </g>
                    </g>
                </g>
                <animateTransform repeatCount="indefinite" dur="5.000000" keyTimes="0.000000; 0.080000; 0.156667; 0.210000; 0.263333; 0.316667; 0.383333; 0.463333; 0.540000; 0.593333; 0.646667; 0.700000; 0.763333; 0.843333; 0.973333; 0.996667; 1" begin="0.000000" calcMode="spline" type="rotate" attributeName="transform" values="7.5; 0; -7.5; 0; 7.5; 0; 7.5; 0; -7.5; 0; 0.5; 0; 7.5; 0; 0; 7.5; 7.5" keySplines="0.167000 0.167000 0.833000 0.833000; 0.167000 0.167000 0.833000 0.833000; 0.167000 0.167000 0.833000 0.833000; 0.167000 0.167000 0.833000 0.833000; 0.167000 0.167000 0.833000 0.833000; 0.167000 0.167000 0.833000 0.833000; 0.167000 0.167000 0.833000 0.833000; 0.167000 0.167000 0.833000 0.833000; 0.167000 0.167000 0.833000 0.833000; 0.167000 0.167000 0.833000 0.833000; 0.167000 0.167000 0.833000 0.833000; 0.167000 0.167000 0.833000 0.833000; 0.167000 0.167000 0.833000 0.833000; 0.167000 0.167000 0.833000 0.833000; 0.167000 0.167000 0.833000 0.833000; 0.167000 0.167000 0.833000 0.833000"/>
            </g>
            <animateTransform repeatCount="indefinite" dur="5.000000" keyTimes="0.000000; 0.098593; 0.193333; 0.347417; 0.490000; 0.657280; 0.753333; 0.906100; 0.996667; 1" begin="0.000000" calcMode="spline" type="translate" attributeName="transform" values="114 114; 114 92; 114 123; 114 92; 114 123; 114 92; 114 123; 114 92; 114 114; 114 114" keySplines="0.167000 0.167000 0.833000 0.833000; 0.167000 0.167000 0.833000 0.833000; 0.167000 0.167000 0.833000 0.833000; 0.167000 0.167000 0.833000 0.833000; 0.167000 0.167000 0.833000 0.833000; 0.167000 0.167000 0.833000 0.833000; 0.167000 0.167000 0.833000 0.833000; 0.167000 0.167000 0.833000 0.833000; 0.000000 0.000000 0.000000 0.000000"/>
        </g>
        <g transform="translate(114 116.927)">
            <g transform="rotate(5.625)">
                <g transform="scale(1 1)">
                    <g transform="translate(0 0)">
                        <g id="Layer_94b8791180c34db6be64bc772b66e65e" inkscape:label="Null 1" inkscape:groupmode="layer" opacity="0"/>
                    </g>
                </g>
                <animateTransform repeatCount="indefinite" dur="5.000000" keyTimes="0.000000; 0.080000; 0.156667; 0.210000; 0.263333; 0.316667; 0.383333; 0.463333; 0.540000; 0.593333; 0.646667; 0.700000; 0.763333; 0.843333; 0.973333; 0.996667; 1" begin="0.000000" calcMode="spline" type="rotate" attributeName="transform" values="7.5; 0; -7.5; 0; 7.5; 0; 7.5; 0; -7.5; 0; 0.5; 0; 7.5; 0; 0; 7.5; 7.5" keySplines="0.167000 0.167000 0.833000 0.833000; 0.167000 0.167000 0.833000 0.833000; 0.167000 0.167000 0.833000 0.833000; 0.167000 0.167000 0.833000 0.833000; 0.167000 0.167000 0.833000 0.833000; 0.167000 0.167000 0.833000 0.833000; 0.167000 0.167000 0.833000 0.833000; 0.167000 0.167000 0.833000 0.833000; 0.167000 0.167000 0.833000 0.833000; 0.167000 0.167000 0.833000 0.833000; 0.167000 0.167000 0.833000 0.833000; 0.167000 0.167000 0.833000 0.833000; 0.167000 0.167000 0.833000 0.833000; 0.167000 0.167000 0.833000 0.833000; 0.167000 0.167000 0.833000 0.833000; 0.167000 0.167000 0.833000 0.833000"/>
            </g>
            <animateTransform repeatCount="indefinite" dur="5.000000" keyTimes="0.000000; 0.098593; 0.193333; 0.347417; 0.490000; 0.657280; 0.753333; 0.906100; 0.996667; 1" begin="0.000000" calcMode="spline" type="translate" attributeName="transform" values="114 114; 114 92; 114 123; 114 92; 114 123; 114 92; 114 123; 114 92; 114 114; 114 114" keySplines="0.167000 0.167000 0.833000 0.833000; 0.167000 0.167000 0.833000 0.833000; 0.167000 0.167000 0.833000 0.833000; 0.167000 0.167000 0.833000 0.833000; 0.167000 0.167000 0.833000 0.833000; 0.167000 0.167000 0.833000 0.833000; 0.167000 0.167000 0.833000 0.833000; 0.167000 0.167000 0.833000 0.833000; 0.000000 0.000000 0.000000 0.000000"/>
        </g>
    </g>
</svg>
